<svg id="Layer_1" data-name="Layer 1" xmlns="http://www.w3.org/2000/svg" viewBox="0 0 231.93 231.93">
  <defs>
    <style>
      .cls-1 {
        fill: #ff0;
      }

      .cls-2 {
        stroke: #000;
        stroke-miterlimit: 10;
      }
    </style>
  </defs>
  <title>Artboard 1</title>
  <g id="outer_rectangle" data-name="outer rectangle">
    <rect x="34.47" y="34.47" width="163" height="163" transform="translate(-48.03 115.97) rotate(-45)"/>
    <path d="M116,1.41,230.52,116,116,230.52,1.41,116,116,1.41M116,0,0,116l116,116,116-116L116,0Z"/>
  </g>
  <g id="inner_rectangle" data-name="inner rectangle">
    <path class="cls-1" d="M116.23,208.83a12.37,12.37,0,0,1-8.82-3.66L27,124.79a12.49,12.49,0,0,1,0-17.65l80.39-80.38a12.46,12.46,0,0,1,17.64,0l80.39,80.38a12.49,12.49,0,0,1,0,17.65l-80.39,80.38A12.39,12.39,0,0,1,116.23,208.83Z"/>
    <path d="M116.23,23.6a11.92,11.92,0,0,1,8.47,3.51l80.38,80.39a12,12,0,0,1,0,16.93L124.7,204.82a12,12,0,0,1-16.94,0L27.37,124.43a12,12,0,0,1,0-16.93l80.39-80.39a11.91,11.91,0,0,1,8.47-3.51m0-1a13,13,0,0,0-9.18,3.8L26.67,106.79a13,13,0,0,0,0,18.35l80.38,80.39a13,13,0,0,0,18.35,0l80.39-80.39a13,13,0,0,0,0-18.35L125.4,26.4a12.93,12.93,0,0,0-9.17-3.8Z"/>
  </g>
  <path id="up_arrow" data-name="up arrow" class="cls-2" d="M70.47,110.47h-19l29,28,24-26,2-2h-18c-5-16,9-35,9-35,10-4,14-4,14-4,1-16,0-19,0-19-19,1-26,10-26,10-16,17-15,36-15,36C69.47,106.47,70.47,110.47,70.47,110.47Z"/>
  <path id="r_arrow" data-name="r arrow" class="cls-2" d="M133.47,84.47v17l-18-26,18-23v12c28,11,34,21,34,21,8,12,6,48,6,48h-14c4-46-22-49-22-49Z"/>
  <path id="l_arrow" data-name="l arrow" class="cls-2" d="M136.47,145.47v-16c16,13,25,22,25,22l-23,24-2,3v-13c-13,4-28,3-28,3-13,0-25-21-25-21l12-9C107.47,149.47,136.47,145.47,136.47,145.47Z"/>
</svg>
